HIERARCHY
ROOT Hips
{
	OFFSET 0.000000 0.000000 0.000000
	CHANNELS 6 Xposition Yposition Zposition Zrotation Yrotation Xrotation 
	JOINT LHipJoint
	{
		OFFSET 0.000000 0.000000 0.000000
		CHANNELS 3 Zrotation Yrotation Xrotation
		JOINT LeftUpLeg
		{
			OFFSET 1.363060 -1.794630 0.839290
			CHANNELS 3 Zrotation Yrotation Xrotation
			JOINT LeftLeg
			{
				OFFSET 2.448110 -6.726130 0.000000
				CHANNELS 3 Zrotation Yrotation Xrotation
				JOINT LeftFoot
				{
					OFFSET 2.562200 -7.039590 0.000000
					CHANNELS 3 Zrotation Yrotation Xrotation
					JOINT LeftToeBase
					{
						OFFSET 0.157640 -0.433110 2.322550
						CHANNELS 3 Zrotation Yrotation Xrotation
						End Site
						{
							OFFSET 0.000000 0.000000 0.000000
						}
					}
				}
			}
		}
	}
	JOINT RHipJoint
	{
		OFFSET 0.000000 0.000000 0.000000
		CHANNELS 3 Zrotation Yrotation Xrotation
		JOINT RightUpLeg
		{
			OFFSET -1.305520 -1.794630 0.839290
			CHANNELS 3 Zrotation Yrotation Xrotation
			JOINT RightLeg
			{
				OFFSET -2.542530 -6.985550 0.000000
				CHANNELS 3 Zrotation Yrotation Xrotation
				JOINT RightFoot
				{
					OFFSET -2.568260 -7.056230 0.000000
					CHANNELS 3 Zrotation Yrotation Xrotation
					JOINT RightToeBase
					{
						OFFSET -0.164730 -0.452590 2.363150
						CHANNELS 3 Zrotation Yrotation Xrotation
						End Site
						{
							OFFSET 0.000000 0.000000 0.000000
						}
					}
				}
			}
		}
	}
}
MOTION
Frames: 22
Frame Time: 0.008333
27.067003 16.951840 2.336021 95.460903 -85.878330 -82.114493 -7.669134 1.856581 3.082392 -20.527420 1.292323 -42.067809 -3.223404 0.721289 28.906739 2.084572 7.395993 -14.577148 -0.941900 -0.000001 -31.543601 11.596106 -4.643809 0.342004 1.912409 -11.820346 6.604769 0.858281 -1.157517 13.875904 -0.151159 0.576261 12.850748 0.010000 -0.000000 -81.724601
26.869301 16.979011 2.345848 97.789710 -86.051636 -84.776113 -7.788250 1.762296 3.136452 -19.642667 0.892938 -40.363976 -3.141380 0.577877 28.210914 2.100464 7.492101 -14.914263 -1.030100 0.000000 -31.598800 11.644984 -4.709042 0.197179 1.554375 -12.208729 5.944445 0.666801 -1.439931 16.377778 -0.177778 1.551213 15.984613 0.511300 -0.000001 -84.340199
26.672717 17.003739 2.352489 110.381459 -85.813010 -97.783464 -8.001961 1.616025 2.949355 -19.163586 1.536396 -38.585258 -3.108709 0.423442 27.457568 2.094193 7.492478 -15.347161 -1.141000 0.000000 -31.387100 11.642126 -4.786131 0.197328 0.885787 -11.818355 5.089310 0.446595 -1.733004 19.315172 -0.270116 2.529765 19.003829 1.131499 0.000000 -86.086100
26.475218 17.019248 2.363518 113.450270 -85.904387 -101.221612 -8.153116 1.540016 2.963241 -18.406034 1.289832 -36.953560 -3.022554 0.320600 27.012690 2.125671 7.654138 -15.793642 -1.258200 0.000000 -30.906500 11.673397 -4.783893 0.038824 0.497483 -12.373152 4.214804 0.252817 -1.939959 22.119527 -0.398040 3.383024 22.104291 1.780300 -0.000001 -86.779199
26.278660 17.028554 2.374190 116.497384 -85.980801 -104.645832 -8.303265 1.484211 2.952240 -17.755904 1.166380 -35.436670 -2.942985 0.245227 26.751936 2.157213 7.802876 -16.288783 -1.385300 -0.000000 -30.186401 11.704128 -4.744620 -0.122221 0.116027 -12.997799 3.245289 0.071545 -2.104954 25.033270 -0.570457 3.937669 24.961657 2.332999 0.000000 -86.270799
26.082906 17.031713 2.383883 119.271829 -86.049206 -107.798099 -8.442440 1.453454 2.916761 -17.228632 1.182444 -34.066249 -2.874610 0.198080 26.691578 2.184739 7.914125 -16.824066 -1.517100 0.000000 -29.253500 11.739633 -4.671005 -0.286409 -0.250794 -13.692784 2.180541 -0.089831 -2.234935 28.036389 -0.773743 4.037113 27.399320 2.640900 0.000001 -84.537400
25.888751 17.029129 2.392060 121.542137 -86.120115 -110.438897 -8.562779 1.449017 2.859892 -16.825280 1.337984 -32.862222 -2.820014 0.177460 26.832106 2.205326 7.970553 -17.389002 -1.648199 0.000000 -28.130400 11.783980 -4.569206 -0.454374 -0.591825 -14.452302 1.015127 -0.229194 -2.342640 31.111585 -0.993475 3.551015 29.236331 2.566400 0.000000 -81.678700
25.696026 17.021361 2.398284 123.090015 -86.203385 -112.344162 -8.657327 1.470466 2.785779 -16.539494 1.618005 -31.821439 -2.780314 0.179553 27.153031 2.217291 7.963443 -17.970966 -1.773100 -0.000000 -26.846200 11.841792 -4.446157 -0.628886 -0.903878 -15.276082 -0.248969 -0.349089 -2.442486 34.228705 -1.216871 2.427889 30.314325 2.040900 0.000000 -77.941400
25.504886 17.009278 2.402711 123.950079 -86.308762 -113.528024 -8.730681 1.511979 2.704283 -16.340971 1.995195 -30.962298 -2.753116 0.200657 27.639889 2.220801 7.892070 -18.563703 -1.888100 -0.000000 -25.402200 11.904934 -4.310705 -0.801702 -1.144003 -16.115261 -1.640531 -0.455662 -2.547511 37.373767 -1.436446 0.676896 30.512179 1.074000 0.000000 -73.629500
25.315267 16.993663 2.404987 123.941574 -86.433912 -113.815772 -8.775420 1.572957 2.618893 -16.221316 2.429429 -30.231354 -2.737952 0.234532 28.231571 2.216857 7.766995 -19.150543 -1.989999 0.000000 -23.848400 11.980526 -4.164429 -0.979776 -1.330447 -16.976029 -3.133644 -0.553542 -2.666327 40.489050 -1.643001 -1.527307 29.764456 -0.179300 0.000000 -69.058200
25.127404 16.975665 2.405753 123.304775 -86.576019 -113.429263 -8.803034 1.645929 2.539230 -16.142525 2.883622 -29.625509 -2.730643 0.276873 28.893144 2.207553 7.601560 -19.725027 -2.077899 0.000000 -22.204800 12.054493 -4.012417 -1.151676 -1.414781 -17.789326 -4.751753 -0.646112 -2.802960 43.546446 -1.832848 -4.002886 28.066675 -1.527900 0.000000 -64.447200
24.940823 16.956153 2.405064 122.063116 -86.724423 -112.393706 -8.812179 1.728967 2.469625 -16.091367 3.314947 -29.091680 -2.729492 0.321945 29.561764 2.195522 7.415211 -20.275125 -2.152400 0.000001 -20.532100 12.128468 -3.853758 -1.317644 -1.404525 -18.539356 -6.480504 -0.731838 -2.956928 46.496222 -1.999945 -6.492966 25.470000 -2.731200 0.000000 -59.855400
24.755598 16.936047 2.403375 120.432169 -86.867690 -110.921073 -8.809344 1.817412 2.414072 -16.048536 3.691764 -28.595311 -2.732045 0.365072 30.187977 2.183283 7.226248 -20.793344 -2.215600 0.000000 -18.890100 12.195938 -3.688797 -1.471756 -1.288220 -19.188238 -8.319500 -0.805633 -3.124407 49.300849 -2.141096 -8.788802 22.075335 -3.600200 0.000001 -55.181100
24.571588 16.916321 2.401203 118.717644 -86.991514 -109.317869 -8.804044 1.905822 2.373469 -15.998921 3.995779 -28.099612 -2.736080 0.401905 30.725548 2.172877 7.052715 -21.271053 -2.270200 0.000000 -17.348100 12.247897 -3.517744 -1.606216 -1.058703 -19.693227 -10.259286 -0.859936 -3.298260 51.916927 -2.257825 -10.754106 18.050483 -4.031200 0.000000 -50.497100
24.388186 16.897605 2.398802 117.115893 -87.088863 -107.785389 -8.798431 1.991012 2.346011 -15.938309 4.216501 -27.565720 -2.740522 0.428511 31.135919 2.165967 6.908103 -21.703130 -2.319600 0.000000 -15.976000 12.283509 -3.340276 -1.719158 -0.732284 -20.048361 -12.283523 -0.884745 -3.472684 54.314293 -2.348744 -12.283711 13.553226 -3.986500 0.000001 -45.471700
24.205325 16.880523 2.396484 115.904205 -87.153482 -106.608064 -8.798312 2.068704 2.327569 -15.861978 4.360252 -26.964137 -2.744123 0.441936 31.392313 2.163454 6.802940 -22.084661 -2.366600 0.000000 -14.832000 12.298011 -3.157126 -1.806414 -0.319940 -20.239974 -14.371657 -0.872242 -3.641321 56.462230 -2.417801 -13.357729 8.788256 -3.522100 -0.000000 -40.081200
24.022772 16.865581 2.394469 115.297695 -87.184641 -106.013417 -8.807717 2.135814 2.312726 -15.767760 4.444796 -26.272110 -2.745963 0.440353 31.479086 2.165472 6.742894 -22.411950 -2.413500 0.000001 -13.957200 12.288474 -2.969319 -1.865867 0.162617 -20.269778 -16.499832 -0.818674 -3.799222 58.337030 -2.470155 -14.002787 3.969241 -2.750100 -0.000000 -34.380800
23.839985 16.853146 2.392924 115.454959 -87.185302 -106.166736 -8.829120 2.190756 2.295406 -15.654223 4.496825 -25.478612 -2.745571 0.423025 31.391149 2.171614 6.728975 -22.683203 -2.461500 0.000000 -13.372000 12.253565 -2.778327 -1.896521 0.702821 -20.147876 -18.645998 -0.726481 -3.942674 59.920782 -2.512457 -14.285707 -0.681816 -1.813400 -0.000000 -28.639400
23.656611 16.843523 2.391921 116.450883 -87.158776 -107.152978 -8.865676 2.233548 2.270592 -15.519625 4.548248 -24.581470 -2.742786 0.390512 31.131070 2.180648 6.757844 -22.895603 -2.510200 -0.000000 -13.076600 12.191412 -2.585945 -1.898026 1.292071 -19.891204 -20.790804 -0.605558 -4.068637 61.202010 -2.551325 -14.299025 -4.941897 -0.855300 0.000000 -23.395800
23.472266 16.836777 2.391474 118.268898 -87.109795 -108.961848 -8.917106 2.266416 2.234184 -15.363965 4.631631 -23.586361 -2.737941 0.344251 30.708177 2.191081 6.822474 -23.048291 -2.558400 0.000000 -13.053900 12.103588 -2.394119 -1.871609 1.924440 -19.524541 -22.919938 -0.469572 -4.175794 62.181853 -2.590500 -14.137030 -8.643988 0.015500 0.000000 -19.123600
23.286375 16.832964 2.391490 120.814299 -87.041904 -111.498752 -8.983821 2.292739 2.185466 -15.186551 4.772704 -22.510220 -2.731619 0.286146 30.134704 2.201078 6.913403 -23.138681 -2.603200 0.000000 -13.278700 11.990497 -2.205421 -1.819297 2.601423 -19.076727 -25.027043 -0.331991 -4.263081 62.868882 -2.631497 -13.886098 -11.690605 0.735600 0.000000 -16.167900
23.098979 16.831954 2.391753 123.961051 -86.952900 -114.648026 -9.066011 2.316757 2.121697 -14.987815 4.999174 -21.353440 -2.724969 0.218194 29.415967 2.208129 7.018479 -23.163708 -2.641100 0.000000 -13.717900 11.852893 -2.021984 -1.746585 3.317589 -18.575431 -27.091728 -0.200259 -4.330343 63.278886 -2.675184 -13.610897 -14.111825 1.297300 0.000001 -14.188500
